<?xml version="1.0" encoding="UTF-8"?>
<svg width="1280" height="520" viewBox="0 0 1280 520" xmlns="http://www.w3.org/2000/svg">
  <defs>
    <linearGradient id="bg" x1="0" y1="0" x2="1" y2="1">
      <stop offset="0%" stop-color="#0f172a" />
      <stop offset="100%" stop-color="#1e293b" />
    </linearGradient>
  </defs>
  <rect width="1280" height="520" rx="28" fill="url(#bg)" />
  <text x="40" y="52" font-size="34" font-weight="700" fill="#ffffff" font-family="Microsoft YaHei, Segoe UI">DeviceService.setEmergency 控制流</text>
  <text x="40" y="82" font-size="18" fill="#94a3b8" font-family="Microsoft YaHei, Segoe UI">测试目标是验证 AI 入侵与人工急停能否一致地联动摄像头、闸机、系统节点与告警。</text>
  
    <rect x="70" y="140" width="250" height="100" rx="20" fill="rgba(15,23,42,0.72)" stroke="rgba(255,255,255,0.08)" />
    <text x="92" y="182" font-size="24" fill="#ffffff" font-family="Microsoft YaHei, Segoe UI">接收急停指令</text>
    <text x="92" y="214" font-size="16" fill="#94a3b8" font-family="Microsoft YaHei, Segoe UI">控制台或 AI 入侵事件触发</text>

    <rect x="390" y="140" width="250" height="100" rx="20" fill="rgba(15,23,42,0.72)" stroke="rgba(255,255,255,0.08)" />
    <text x="412" y="182" font-size="24" fill="#ffffff" font-family="Microsoft YaHei, Segoe UI">更新摄像头 ROI 状态</text>
    <text x="412" y="214" font-size="16" fill="#94a3b8" font-family="Microsoft YaHei, Segoe UI">入侵状态随急停同步</text>

    <rect x="710" y="140" width="250" height="100" rx="20" fill="rgba(15,23,42,0.72)" stroke="rgba(255,255,255,0.08)" />
    <text x="732" y="182" font-size="24" fill="#ffffff" font-family="Microsoft YaHei, Segoe UI">更新闸机锁定状态</text>
    <text x="732" y="214" font-size="16" fill="#94a3b8" font-family="Microsoft YaHei, Segoe UI">急停后闸机锁定</text>

    <rect x="1030" y="140" width="180" height="100" rx="20" fill="rgba(15,23,42,0.72)" stroke="rgba(255,255,255,0.08)" />
    <text x="1050" y="182" font-size="24" fill="#ffffff" font-family="Microsoft YaHei, Segoe UI">写入安全事件</text>
    <text x="1050" y="214" font-size="16" fill="#94a3b8" font-family="Microsoft YaHei, Segoe UI">急停生效 / 解除</text>

    <rect x="280" y="330" width="280" height="104" rx="20" fill="rgba(15,23,42,0.72)" stroke="rgba(255,255,255,0.08)" />
    <text x="304" y="372" font-size="24" fill="#ffffff" font-family="Microsoft YaHei, Segoe UI">更新系统节点健康等级</text>
    <text x="304" y="404" font-size="16" fill="#94a3b8" font-family="Microsoft YaHei, Segoe UI">预警 / 稳定</text>

    <rect x="700" y="330" width="320" height="104" rx="20" fill="rgba(15,23,42,0.72)" stroke="rgba(255,255,255,0.08)" />
    <text x="724" y="372" font-size="24" fill="#ffffff" font-family="Microsoft YaHei, Segoe UI">若 active=true，则新增高优先级告警</text>
    <text x="724" y="404" font-size="16" fill="#94a3b8" font-family="Microsoft YaHei, Segoe UI">记录操作台触发的急停告警</text>

    <line x1="320" y1="190" x2="390" y2="190" stroke="#38bdf8" stroke-width="6" stroke-linecap="round" />
    <line x1="640" y1="190" x2="710" y2="190" stroke="#38bdf8" stroke-width="6" stroke-linecap="round" />
    <line x1="960" y1="190" x2="1030" y2="190" stroke="#38bdf8" stroke-width="6" stroke-linecap="round" />
    <line x1="835" y1="240" x2="835" y2="290" stroke="#38bdf8" stroke-width="6" stroke-linecap="round" />
    <line x1="835" y1="290" x2="420" y2="290" stroke="#38bdf8" stroke-width="4" stroke-linecap="round" />
    <line x1="835" y1="290" x2="860" y2="290" stroke="#38bdf8" stroke-width="4" stroke-linecap="round" />
    <line x1="420" y1="290" x2="420" y2="330" stroke="#38bdf8" stroke-width="4" stroke-linecap="round" />
    <line x1="860" y1="290" x2="860" y2="330" stroke="#38bdf8" stroke-width="4" stroke-linecap="round" />
  
</svg>
