<?xml version="1.0" encoding="UTF-8"?>
<svg width="1280" height="642" viewBox="0 0 1280 642" xmlns="http://www.w3.org/2000/svg">
  <defs>
    <linearGradient id="bg" x1="0" x2="1" y1="0" y2="1">
      <stop offset="0%" stop-color="#0f172a" />
      <stop offset="100%" stop-color="#1e293b" />
    </linearGradient>
  </defs>
  <rect width="1280" height="642" rx="28" fill="url(#bg)" />
  <text x="40" y="48" font-size="34" font-weight="700" fill="#ffffff" font-family="Microsoft YaHei, Segoe UI">ParkVision API 性能测试结果</text>
  <text x="40" y="78" font-size="18" fill="#94a3b8" font-family="Microsoft YaHei, Segoe UI">蓝色为平均响应时间，黄色为 P95。测试基于本机预览环境与 H2 文件数据库。</text>
  
        <text x="40" y="108" font-size="24" fill="#e2e8f0" font-family="Microsoft YaHei, Segoe UI">运营首页汇总</text>
        <text x="40" y="138" font-size="15" fill="#94a3b8" font-family="Microsoft YaHei, Segoe UI">平均 35.81 ms | P95 89.34 ms | 最大 190.49 ms</text>
        <rect x="280" y="90" width="860" height="20" rx="10" fill="rgba(255,255,255,0.06)" />
        <rect x="280" y="90" width="344.7123349003806" height="20" rx="10" fill="#38bdf8" />
        <rect x="280" y="120" width="860" height="12" rx="6" fill="rgba(255,255,255,0.06)" />
        <rect x="280" y="120" width="860" height="12" rx="6" fill="#f59e0b" />
        <text x="636.7123349003806" y="106" font-size="14" fill="#bae6fd" font-family="Segoe UI">35.81 ms</text>
        <text x="1058" y="131" font-size="14" fill="#fde68a" font-family="Segoe UI">89.34 ms</text>
      

        <text x="40" y="190" font-size="24" fill="#e2e8f0" font-family="Microsoft YaHei, Segoe UI">调度队列</text>
        <text x="40" y="220" font-size="15" fill="#94a3b8" font-family="Microsoft YaHei, Segoe UI">平均 14.22 ms | P95 21.89 ms | 最大 27.66 ms</text>
        <rect x="280" y="172" width="860" height="20" rx="10" fill="rgba(255,255,255,0.06)" />
        <rect x="280" y="172" width="136.88381464069846" height="20" rx="10" fill="#38bdf8" />
        <rect x="280" y="202" width="860" height="12" rx="6" fill="rgba(255,255,255,0.06)" />
        <rect x="280" y="202" width="210.71636445041415" height="12" rx="6" fill="#f59e0b" />
        <text x="428.88381464069846" y="188" font-size="14" fill="#bae6fd" font-family="Segoe UI">14.22 ms</text>
        <text x="502.7163644504142" y="213" font-size="14" fill="#fde68a" font-family="Segoe UI">21.89 ms</text>
      

        <text x="40" y="272" font-size="24" fill="#e2e8f0" font-family="Microsoft YaHei, Segoe UI">设备总览</text>
        <text x="40" y="302" font-size="15" fill="#94a3b8" font-family="Microsoft YaHei, Segoe UI">平均 16.5 ms | P95 18.41 ms | 最大 42.37 ms</text>
        <rect x="280" y="254" width="860" height="20" rx="10" fill="rgba(255,255,255,0.06)" />
        <rect x="280" y="254" width="158.8314304902619" height="20" rx="10" fill="#38bdf8" />
        <rect x="280" y="284" width="860" height="12" rx="6" fill="rgba(255,255,255,0.06)" />
        <rect x="280" y="284" width="177.2173718379225" height="12" rx="6" fill="#f59e0b" />
        <text x="450.83143049026194" y="270" font-size="14" fill="#bae6fd" font-family="Segoe UI">16.5 ms</text>
        <text x="469.21737183792254" y="295" font-size="14" fill="#fde68a" font-family="Segoe UI">18.41 ms</text>
      

        <text x="40" y="354" font-size="24" fill="#e2e8f0" font-family="Microsoft YaHei, Segoe UI">计费预览</text>
        <text x="40" y="384" font-size="15" fill="#94a3b8" font-family="Microsoft YaHei, Segoe UI">平均 21.82 ms | P95 39.08 ms | 最大 49.79 ms</text>
        <rect x="280" y="336" width="860" height="20" rx="10" fill="rgba(255,255,255,0.06)" />
        <rect x="280" y="336" width="210.04253413924334" height="20" rx="10" fill="#38bdf8" />
        <rect x="280" y="366" width="860" height="12" rx="6" fill="rgba(255,255,255,0.06)" />
        <rect x="280" y="366" width="376.18983657935973" height="12" rx="6" fill="#f59e0b" />
        <text x="502.04253413924334" y="352" font-size="14" fill="#bae6fd" font-family="Segoe UI">21.82 ms</text>
        <text x="668.1898365793597" y="377" font-size="14" fill="#fde68a" font-family="Segoe UI">39.08 ms</text>
      

        <text x="40" y="436" font-size="24" fill="#e2e8f0" font-family="Microsoft YaHei, Segoe UI">管理报表</text>
        <text x="40" y="466" font-size="15" fill="#94a3b8" font-family="Microsoft YaHei, Segoe UI">平均 9.71 ms | P95 20.73 ms | 最大 22.15 ms</text>
        <rect x="280" y="418" width="860" height="20" rx="10" fill="rgba(255,255,255,0.06)" />
        <rect x="280" y="418" width="93.46989030669354" height="20" rx="10" fill="#38bdf8" />
        <rect x="280" y="448" width="860" height="12" rx="6" fill="rgba(255,255,255,0.06)" />
        <rect x="280" y="448" width="199.5500335795836" height="12" rx="6" fill="#f59e0b" />
        <text x="385.4698903066935" y="434" font-size="14" fill="#bae6fd" font-family="Segoe UI">9.71 ms</text>
        <text x="491.5500335795836" y="459" font-size="14" fill="#fde68a" font-family="Segoe UI">20.73 ms</text>
      

        <text x="40" y="518" font-size="24" fill="#e2e8f0" font-family="Microsoft YaHei, Segoe UI">视觉推理</text>
        <text x="40" y="548" font-size="15" fill="#94a3b8" font-family="Microsoft YaHei, Segoe UI">平均 6.92 ms | P95 8.78 ms | 最大 9.51 ms</text>
        <rect x="280" y="500" width="860" height="20" rx="10" fill="rgba(255,255,255,0.06)" />
        <rect x="280" y="500" width="66.6129393328856" height="20" rx="10" fill="#38bdf8" />
        <rect x="280" y="530" width="860" height="12" rx="6" fill="rgba(255,255,255,0.06)" />
        <rect x="280" y="530" width="84.51757331542422" height="12" rx="6" fill="#f59e0b" />
        <text x="358.6129393328856" y="516" font-size="14" fill="#bae6fd" font-family="Segoe UI">6.92 ms</text>
        <text x="376.5175733154242" y="541" font-size="14" fill="#fde68a" font-family="Segoe UI">8.78 ms</text>
      
  <rect x="40" y="604" width="16" height="16" rx="8" fill="#38bdf8" />
  <text x="64" y="618" font-size="14" fill="#cbd5e1" font-family="Microsoft YaHei, Segoe UI">平均响应时间</text>
  <rect x="220" y="604" width="16" height="16" rx="8" fill="#f59e0b" />
  <text x="244" y="618" font-size="14" fill="#cbd5e1" font-family="Microsoft YaHei, Segoe UI">P95 响应时间</text>
</svg>
